<?xml version="1.0" encoding="UTF-8" standalone="no"?>
<svg width="21px" height="19px" viewBox="0 0 21 19" version="1.1" xmlns="http://www.w3.org/2000/svg" xmlns:xlink="http://www.w3.org/1999/xlink">
    <!-- Generator: Sketch 44.1 (41455) - http://www.bohemiancoding.com/sketch -->
    <title>Slice 1</title>
    <desc>Created with Sketch.</desc>
    <defs></defs>
    <g id="Page-1" stroke="none" stroke-width="1" fill="none" fill-rule="evenodd">
        <g id="Group-2" transform="translate(1.000000, 1.000000)" fill-rule="nonzero" stroke="#4A4A4A" fill="#4A4A4A">
            <g id="Group">
                <path d="M0,2.16778523 C3.18791946,-0.637583893 9.05369128,-0.637583893 12.2416107,2.16778523 L17.2147651,2.16778523 C17.4964674,2.16778523 17.7248322,2.39615006 17.7248322,2.67785235 L17.7248322,7.77852349 C17.7248322,8.06022578 17.4964674,8.2885906 17.2147651,8.2885906 L6.12080537,8.2885906 C5.86577181,8.2885906 5.73825503,8.41610738 5.61073826,8.54362416 L5.10067114,9.05369128 C4.97315436,9.18120805 4.84563758,9.30872483 4.59060403,9.30872483 L3.06040268,9.30872483 C2.80536913,9.30872483 2.67785235,9.18120805 2.55033557,9.05369128 L2.04026846,8.54362416 C1.91275168,8.41610738 1.7852349,8.2885906 1.53020134,8.2885906 L0.510067114,8.2885906 C0.228364826,8.2885906 3.44985806e-17,8.06022578 0,7.77852349 L0,2.16778523 Z" id="Shape"></path>
            </g>
            <g id="Group" transform="translate(0.000000, 10.073826)">
                <path d="M0,0.510067114 C-3.44985806e-17,0.228364826 0.228364826,5.17478709e-17 0.510067114,0 L1.53020134,0 C1.7852349,0 1.91275168,0.127516779 2.04026846,0.255033557 L2.55033557,0.765100671 C2.67785235,0.89261745 2.80536913,1.02013423 3.06040268,1.02013423 L4.59060403,1.02013423 C4.84563758,1.02013423 4.97315436,0.89261745 5.10067114,0.765100671 L5.61073826,0.255033557 C5.73825503,0.127516779 5.86577181,0 6.12080537,0 L18.4899329,0 C18.7716352,1.72492903e-17 19,0.228364826 19,0.510067114 L19,5.61073826 C19,5.89244054 18.7716352,6.12080537 18.4899329,6.12080537 L6.12080537,6.12080537 C5.86577181,6.12080537 5.73825503,6.24832215 5.61073826,6.37583893 L5.10067114,6.88590604 C4.97315436,7.01342282 4.84563758,7.1409396 4.59060403,7.1409396 L3.06040268,7.1409396 C2.80536913,7.1409396 2.67785235,7.01342282 2.55033557,6.88590604 L2.04026846,6.37583893 C1.91275168,6.24832215 1.7852349,6.12080537 1.53020134,6.12080537 L0.510067114,6.12080537 C0.228364826,6.12080537 3.44985806e-17,5.89244054 0,5.61073826 L0,0.510067114 Z" id="Shape"></path>
            </g>
        </g>
    </g>
</svg>