<?xml version="1.0" encoding="UTF-8" standalone="no"?>
<svg width="28px" height="26px" viewBox="0 0 28 26" version="1.1" xmlns="http://www.w3.org/2000/svg" xmlns:xlink="http://www.w3.org/1999/xlink">
    <!-- Generator: Sketch 44.1 (41455) - http://www.bohemiancoding.com/sketch -->
    <title>Slice 1</title>
    <desc>Created with Sketch.</desc>
    <defs></defs>
    <g id="Page-1" stroke="none" stroke-width="1" fill="none" fill-rule="evenodd">
        <g id="Group-2" transform="translate(1.000000, 1.000000)" fill-rule="nonzero" stroke="#4A4A4A" fill="#4A4A4A">
            <g id="Group">
                <path d="M0,3.02222222 C4.44444444,-0.888888889 12.6222222,-0.888888889 17.0666667,3.02222222 L24,3.02222222 C24.3927358,3.02222222 24.7111111,3.34059751 24.7111111,3.73333333 L24.7111111,10.8444444 C24.7111111,11.2371803 24.3927358,11.5555556 24,11.5555556 L8.53333333,11.5555556 C8.17777778,11.5555556 8,11.7333333 7.82222222,11.9111111 L7.11111111,12.6222222 C6.93333333,12.8 6.75555556,12.9777778 6.4,12.9777778 L4.26666667,12.9777778 C3.91111111,12.9777778 3.73333333,12.8 3.55555556,12.6222222 L2.84444444,11.9111111 C2.66666667,11.7333333 2.48888889,11.5555556 2.13333333,11.5555556 L0.711111111,11.5555556 C0.318375289,11.5555556 4.80962667e-17,11.2371803 0,10.8444444 L0,3.02222222 Z" id="Shape"></path>
            </g>
            <g id="Group" transform="translate(0.000000, 14.044444)">
                <path d="M0,0.711111111 C-4.80962667e-17,0.318375289 0.318375289,7.21444001e-17 0.711111111,0 L2.13333333,0 C2.48888889,0 2.66666667,0.177777778 2.84444444,0.355555556 L3.55555556,1.06666667 C3.73333333,1.24444444 3.91111111,1.42222222 4.26666667,1.42222222 L6.4,1.42222222 C6.75555556,1.42222222 6.93333333,1.24444444 7.11111111,1.06666667 L7.82222222,0.355555556 C8,0.177777778 8.17777778,0 8.53333333,0 L25.7777778,0 C26.1705136,2.40481334e-17 26.4888889,0.318375289 26.4888889,0.711111111 L26.4888889,7.82222222 C26.4888889,8.21495804 26.1705136,8.53333333 25.7777778,8.53333333 L8.53333333,8.53333333 C8.17777778,8.53333333 8,8.71111111 7.82222222,8.88888889 L7.11111111,9.6 C6.93333333,9.77777778 6.75555556,9.95555556 6.4,9.95555556 L4.26666667,9.95555556 C3.91111111,9.95555556 3.73333333,9.77777778 3.55555556,9.6 L2.84444444,8.88888889 C2.66666667,8.71111111 2.48888889,8.53333333 2.13333333,8.53333333 L0.711111111,8.53333333 C0.318375289,8.53333333 4.80962667e-17,8.21495804 0,7.82222222 L0,0.711111111 Z" id="Shape"></path>
            </g>
        </g>
    </g>
</svg>